<svg width="24" height="24" viewBox="0 0 24 24" fill="none" xmlns="http://www.w3.org/2000/svg">
<path d="M12 12.7999C13.7673 12.7999 15.2 11.3672 15.2 9.5999C15.2 7.83259 13.7673 6.3999 12 6.3999C10.2327 6.3999 8.79999 7.83259 8.79999 9.5999C8.79999 11.3672 10.2327 12.7999 12 12.7999Z" stroke="black" stroke-width="2" stroke-miterlimit="10"/>
<path d="M19.2 9.5999C19.2 15.1999 13.6 21.5999 12 21.5999C10.4 21.5999 4.79999 15.1999 4.79999 9.5999C4.79999 7.69034 5.55856 5.859 6.90882 4.50873C8.25908 3.15847 10.0904 2.3999 12 2.3999C13.9095 2.3999 15.7409 3.15847 17.0912 4.50873C18.4414 5.859 19.2 7.69034 19.2 9.5999V9.5999Z" stroke="black" stroke-width="2" stroke-miterlimit="10"/>
</svg>
