<svg width="150" height="23" viewBox="0 0 150 23" fill="none" xmlns="http://www.w3.org/2000/svg">
<path fill-rule="evenodd" clip-rule="evenodd" d="M61.4936 11.8117C61.1888 10.5202 60.3342 9.90381 59.2663 9.90381C58.1983 9.90381 57.4663 10.5495 56.9475 11.1073V18.0337C57.4973 18.5035 58.1368 19.0026 59.2352 19.0026C60.2422 19.0026 60.8828 18.6208 61.2181 17.8296C61.5844 17.0074 61.6758 16.215 61.6758 14.3658C61.6758 13.0157 61.646 12.458 61.493 11.8128L61.4936 11.8117ZM63.4149 21.1761C62.3469 21.9984 61.2796 22.3491 59.9977 22.3491C58.4726 22.3491 57.4053 21.9092 56.5197 20.9691C56.3977 21.4981 56.3673 21.6442 56.093 22.0547H52.432C52.7308 21.3802 52.8282 20.9392 52.8282 18.8554V4.94328C52.8282 3.09466 52.7673 2.09703 52.5533 1.24603L56.7348 0.305908C56.8567 1.33343 56.8872 1.95041 56.8872 2.97678V6.52856C56.8872 6.96901 56.8573 7.61531 56.7958 7.84933C57.5888 7.02708 58.6872 6.64586 60.1209 6.64586C63.9336 6.64586 66.3133 9.58066 66.3133 14.2773C66.3133 17.3305 65.3368 19.7076 63.4149 21.175" fill="black"/>
<path fill-rule="evenodd" clip-rule="evenodd" d="M67.3812 22.0553V7.291L71.4689 6.6746V22.0547L67.3812 22.0553ZM69.425 5.3245C68.0523 5.3245 66.9234 4.2389 66.9234 2.8888C66.9234 1.5387 68.0828 0.452527 69.486 0.452527C70.8587 0.452527 71.9571 1.53928 71.9571 2.8888C71.9571 4.23833 70.8288 5.3245 69.425 5.3245Z" fill="black"/>
<path fill-rule="evenodd" clip-rule="evenodd" d="M76.9716 22.4078C75.2386 22.4078 73.8294 21.6154 73.3418 20.3533C73.037 19.5897 72.9754 19.1205 72.9754 16.978V5.76553L72.7621 1.24603L76.9418 0.33638C77.0942 1.15863 77.1551 2.12693 77.1551 4.24063V15.9505C77.1551 18.5323 77.185 18.8859 77.43 19.297C77.5824 19.5615 77.9183 19.7081 78.2547 19.7081C78.4071 19.7081 78.4985 19.7081 78.7119 19.6495L79.4135 21.9972C78.7119 22.2617 77.8579 22.4083 76.9728 22.4083" fill="black"/>
<path fill-rule="evenodd" clip-rule="evenodd" d="M88.0322 12.7219C88.0322 11.6064 87.9103 11.0199 87.5446 10.4621C87.1477 9.87563 86.5681 9.58238 85.7446 9.58238C84.1884 9.58238 83.3039 10.7554 83.3039 12.8403V12.899H88.0322V12.7219ZM83.243 15.7751V15.8924C83.243 18.2108 84.4322 19.5322 86.5376 19.5322C87.9408 19.5322 89.2525 19.0331 90.5033 18.0349L92.0894 20.3832C90.2894 21.7919 88.3979 22.467 86.2017 22.467C81.7173 22.467 78.8195 19.4137 78.8195 14.689C78.8195 11.9888 79.3991 10.204 80.7719 8.7308C82.0531 7.3508 83.6087 6.70565 85.6842 6.70565C87.4842 6.70565 89.1922 7.29215 90.1991 8.29035C91.6334 9.6991 92.2728 11.7243 92.2728 14.8655V15.7751H83.243Z" fill="black"/>
<path fill-rule="evenodd" clip-rule="evenodd" d="M98.7617 22.4078C96.688 22.4078 95.0398 21.528 94.5515 20.2067C94.3077 19.5609 94.2766 19.2671 94.2766 17.8877V9.72268H92.7205V7.02248H94.2766L94.429 3.4707L98.5776 2.4725C98.4252 3.8525 98.3326 5.49528 98.3326 7.0219H101.994L100.956 9.7221H98.3266V17.2661C98.3266 19.174 98.693 19.6731 100.096 19.6731C100.461 19.6731 100.828 19.5851 101.56 19.3798L102.078 21.7281C100.889 22.1973 99.8212 22.4032 98.7533 22.4032" fill="black"/>
<path fill-rule="evenodd" clip-rule="evenodd" d="M103.02 22.0553V7.291L107.107 6.6746V22.0547L103.02 22.0553ZM105.063 5.3245C103.691 5.3245 102.562 4.2389 102.562 2.8888C102.562 1.5387 103.721 0.452527 105.124 0.452527C106.497 0.452527 107.596 1.53928 107.596 2.8888C107.596 4.23833 106.466 5.3245 105.063 5.3245Z" fill="black"/>
<path fill-rule="evenodd" clip-rule="evenodd" d="M117.54 22.0553V12.282C117.54 10.58 117.235 10.0798 116.167 10.0798C115.344 10.0798 114.276 10.6087 113.33 11.4298V22.0559H109.243V11.1665C109.243 9.87505 109.06 8.6365 108.693 7.64405L112.323 6.64585C112.689 7.26225 112.903 7.90797 112.903 8.52437L114.703 7.40887C115.528 6.99833 116.594 6.76315 117.509 6.76315C119.242 6.76315 120.773 7.6429 121.262 8.9355C121.476 9.49325 121.567 10.139 121.567 11.0779V22.0547H117.54L117.54 22.0553Z" fill="black"/>
<path fill-rule="evenodd" clip-rule="evenodd" d="M122.931 22.0553V7.291L127.019 6.6746V22.0547L122.931 22.0553ZM124.975 5.3245C123.603 5.3245 122.474 4.2389 122.474 2.8888C122.474 1.5387 123.633 0.452527 125.036 0.452527C126.408 0.452527 127.507 1.53928 127.507 2.8888C127.507 4.23833 126.378 5.3245 124.975 5.3245H124.975Z" fill="black"/>
<path fill-rule="evenodd" clip-rule="evenodd" d="M136.586 15.4807C133.748 15.4807 132.773 15.9798 132.773 17.7704C132.773 18.9434 133.536 19.7369 134.573 19.7369C135.335 19.7369 136.098 19.3557 136.708 18.7094L136.769 15.4807H136.586ZM140.064 22.8177C139.118 22.4365 138.264 21.7615 137.867 20.9984C137.568 21.2917 137.226 21.5849 136.921 21.7908C136.158 22.3198 135.06 22.613 133.779 22.613C130.301 22.613 128.41 20.911 128.41 17.9164C128.41 14.394 130.942 12.7506 135.914 12.7506C136.219 12.7506 136.494 12.7506 136.828 12.7794V12.163C136.828 10.4955 136.494 9.93198 134.998 9.93198C133.686 9.93198 132.161 10.5484 130.483 11.634L128.75 8.81648C129.573 8.31738 130.184 8.02413 131.282 7.58368C132.807 6.96728 134.119 6.70393 135.552 6.70393C138.182 6.70393 139.976 7.64348 140.585 9.31616C140.799 9.93256 140.89 10.4029 140.86 12.0164L140.769 17.0649C140.739 18.7094 140.86 19.4132 142.233 20.4114L140.067 22.8183L140.064 22.8177Z" fill="black"/>
<path fill-rule="evenodd" clip-rule="evenodd" d="M147.127 22.4078C145.394 22.4078 143.985 21.6154 143.496 20.3533C143.198 19.5897 143.131 19.1205 143.131 16.978V5.76553L142.917 1.24603L147.096 0.33523C147.249 1.15748 147.31 2.12578 147.31 4.23948V15.9511C147.31 18.5328 147.34 18.8865 147.585 19.2976C147.738 19.5621 148.073 19.7087 148.409 19.7087C148.562 19.7087 148.653 19.7087 148.866 19.6501L149.568 21.9978C148.866 22.2623 148.013 22.4089 147.127 22.4089" fill="black"/>
<path fill-rule="evenodd" clip-rule="evenodd" d="M14.5339 11.5679C13.8807 11.0653 13.7749 10.1476 14.2966 9.51971C14.8183 8.89181 15.7727 8.78946 16.4253 9.29143C17.0779 9.79341 17.1843 10.7117 16.662 11.3396C16.1396 11.9675 15.1865 12.0698 14.5339 11.5679ZM11.9307 14.6999C11.2775 14.1973 11.1717 13.2796 11.6934 12.6517C12.2151 12.0238 13.1695 11.9215 13.8221 12.4235C14.4747 12.9254 14.5811 13.8437 14.0594 14.4716C13.5377 15.0995 12.5833 15.2019 11.9307 14.6999ZM9.21753 17.9642C8.56434 17.4616 8.45857 16.5439 8.98028 15.916C9.502 15.2881 10.4564 15.1858 11.109 15.6883C11.7616 16.1909 11.8679 17.1086 11.3462 17.7365C10.8245 18.3644 9.87012 18.4667 9.21753 17.9647V17.9642ZM18.912 8.58648C18.3705 9.02521 17.5655 9.05223 16.9918 8.60948C16.4211 8.17076 16.2687 7.41521 16.5867 6.81261L11.6014 3.00898C11.3384 2.80543 11.2321 2.82038 11.0396 3.05958L8.77889 5.79486C8.55777 6.05361 8.60857 6.17666 8.84642 6.38136C9.54459 6.97031 10.0016 7.77948 10.1355 8.66353C10.4116 10.4357 9.79721 11.9088 8.21833 12.8737C6.65379 13.8299 5.00558 13.8546 3.41952 12.8421C3.19004 12.6954 3.08486 12.7115 2.92052 12.9145L0.717134 15.5796C0.521118 15.8096 0.561755 15.9287 0.785261 16.0971L3.67172 18.2954C4.46295 18.8491 5.28944 19.289 6.14941 19.6121C6.1907 19.3714 6.29473 19.1447 6.4518 18.9532C6.97411 18.3247 7.92789 18.2229 8.58048 18.7249C9.05857 19.0969 9.24622 19.6966 9.09682 20.2371C9.70339 20.2734 10.3237 20.2601 10.9614 20.1877L33.4996 17.6324" fill="black"/>
<path fill-rule="evenodd" clip-rule="evenodd" d="M37.6434 11.2551C37.3972 11.592 36.9143 11.6731 36.5635 11.4362C36.3958 11.3221 36.2818 11.1488 36.2465 10.9541C36.2112 10.7593 36.2575 10.5591 36.3753 10.3972C36.4938 10.2357 36.674 10.126 36.8764 10.0921C37.0788 10.0582 37.2869 10.1027 37.4552 10.216C37.8054 10.4529 37.8896 10.9175 37.6434 11.2551ZM36.4171 12.9329C36.1709 13.2699 35.6881 13.3509 35.3373 13.114C34.9865 12.8771 34.9028 12.4125 35.149 12.075C35.2676 11.9136 35.4477 11.8039 35.6501 11.7699C35.8525 11.736 36.0606 11.7806 36.2289 11.8939C36.5791 12.1308 36.6633 12.5954 36.4171 12.9329ZM35.1908 14.6108C34.9446 14.9477 34.4618 15.0288 34.111 14.7919C33.7602 14.555 33.6765 14.0904 33.9227 13.7529C34.0413 13.5914 34.2214 13.4817 34.4238 13.4478C34.6262 13.4139 34.8343 13.4584 35.0026 13.5717C35.1704 13.6858 35.2844 13.8591 35.3196 14.0539C35.3549 14.2486 35.3086 14.4488 35.1908 14.6108ZM43.3542 11.4902L41.7132 10.2914C40.8765 9.7267 39.9657 9.3886 38.9964 9.29085C38.9759 9.39371 38.9331 9.49127 38.8709 9.5772C38.6247 9.91415 38.1418 9.99523 37.791 9.75833C37.6321 9.6508 37.5311 9.49613 37.4881 9.32708L25.0159 10.9911L32.5614 15.8119C32.5695 15.6751 32.6169 15.5432 32.6982 15.4307C32.8168 15.2693 32.9969 15.1596 33.1993 15.1257C33.4017 15.0917 33.6098 15.1363 33.7781 15.2496C34.1283 15.4865 34.2126 15.9511 33.9663 16.2886C33.8886 16.3938 33.7883 16.4709 33.6759 16.5186L37.4576 18.9348C37.607 19.0463 37.6667 19.0365 37.7719 18.9003L39.0054 17.342C39.1267 17.1954 39.0962 17.1264 38.9606 17.0143C38.5625 16.6921 38.2968 16.244 38.2112 15.7504C38.0355 14.7614 38.3618 13.9288 39.2349 13.3711C40.0996 12.8191 41.0217 12.7863 41.9223 13.3366C42.0526 13.4159 42.1118 13.4056 42.2008 13.2906L43.4002 11.7737C43.5078 11.6426 43.4827 11.5765 43.356 11.4845" fill="black"/>
</svg>
