<svg width="14" height="14" viewBox="0 0 14 14" fill="none" xmlns="http://www.w3.org/2000/svg">
<g clip-path="url(#clip0_1_380)">
<path d="M6.99999 0.155545C8.35369 0.155545 9.67699 0.556965 10.8026 1.30904C11.9281 2.06112 12.8054 3.13008 13.3234 4.38073C13.8415 5.63139 13.977 7.00758 13.7129 8.33527C13.4488 9.66297 12.797 10.8825 11.8397 11.8397C10.8825 12.797 9.66297 13.4488 8.33527 13.7129C7.00758 13.977 5.63139 13.8415 4.38073 13.3234C3.13008 12.8054 2.06112 11.9281 1.30904 10.8026C0.556965 9.67699 0.155545 8.35369 0.155545 6.99999C0.152979 6.10044 0.328264 5.20927 0.67132 4.3777C1.01438 3.54614 1.51844 2.79059 2.15451 2.15451C2.79059 1.51844 3.54614 1.01438 4.3777 0.67132C5.20927 0.328264 6.10044 0.152979 6.99999 0.155545Z" fill="black"/>
<path d="M10.7916 5.11385L5.93054 9.97496L3.20831 7.27219L4.31665 6.1833L5.93054 7.77774L9.68331 4.02496L10.7916 5.11385Z" fill="white"/>
</g>
<defs>
<clipPath id="clip0_1_380">
<rect width="14" height="14" fill="white"/>
</clipPath>
</defs>
</svg>
