<svg width="32" height="32" viewBox="0 0 32 32" fill="none" xmlns="http://www.w3.org/2000/svg">
<path d="M26.8 30.67H6.89C6.09435 30.67 5.33129 30.3539 4.76868 29.7913C4.20607 29.2287 3.89 28.4656 3.89 27.67V15H28C28.4933 15 28.9664 15.196 29.3152 15.5448C29.664 15.8936 29.86 16.3667 29.86 16.86V27.62C29.8668 28.0233 29.7922 28.4237 29.6407 28.7975C29.4892 29.1713 29.2639 29.5107 28.9783 29.7954C28.6926 30.0801 28.3525 30.3043 27.9782 30.4546C27.604 30.6049 27.2032 30.6781 26.8 30.67V30.67ZM5.85 17V27.62C5.85 27.8852 5.95536 28.1396 6.14289 28.3271C6.33043 28.5146 6.58478 28.62 6.85 28.62H26.8C27.0652 28.62 27.3196 28.5146 27.5071 28.3271C27.6946 28.1396 27.8 27.8852 27.8 27.62V17H5.85Z" fill="black"/>
<path d="M3.77 15.77L2.24 9.77001C2.14836 9.4305 2.12521 9.07613 2.17191 8.72758C2.2186 8.37903 2.3342 8.04326 2.51198 7.73983C2.68975 7.43641 2.92614 7.17141 3.20736 6.96026C3.48859 6.74912 3.80902 6.59606 4.15 6.51001L24.21 1.41001C24.5475 1.32453 24.8985 1.30638 25.2431 1.35662C25.5876 1.40686 25.9188 1.52449 26.2178 1.7028C26.5169 1.8811 26.7778 2.11659 26.9858 2.39579C27.1938 2.675 27.3447 2.99245 27.43 3.33001L28.5 7.56001C28.6214 8.03737 28.5485 8.5434 28.2973 8.96708C28.0461 9.39076 27.6371 9.6975 27.16 9.82001V9.82001L3.77 15.77ZM24.87 3.33001H24.71L4.64 8.45001C4.47291 8.49245 4.32953 8.59952 4.24138 8.74767C4.15324 8.89582 4.12756 9.07292 4.17 9.24001L5.17 13.33L26.54 7.92001L25.54 3.82001C25.5044 3.67991 25.4232 3.55567 25.3091 3.46693C25.195 3.37819 25.0545 3.33001 24.91 3.33001H24.87Z" fill="black"/>
<path d="M15.5026 5.11557L13.5642 5.60822L15.1506 11.8498L17.0889 11.3571L15.5026 5.11557Z" fill="black"/>
<path d="M21.2717 3.3122L19.3333 3.80484L20.9196 10.0464L22.858 9.55376L21.2717 3.3122Z" fill="black"/>
<path d="M9.63262 6.49094L7.69415 6.98325L9.27938 13.2251L11.2178 12.7328L9.63262 6.49094Z" fill="black"/>
</svg>
