<svg width="18" height="18" viewBox="0 0 18 18" fill="none" xmlns="http://www.w3.org/2000/svg">
<path fill-rule="evenodd" clip-rule="evenodd" d="M9 16.5C13.1422 16.5 16.5 13.1422 16.5 9C16.5 4.85775 13.1422 1.5 9 1.5C4.85775 1.5 1.5 4.85775 1.5 9C1.5 13.1422 4.85775 16.5 9 16.5ZM9.75 5.25C9.75 5.05109 9.67098 4.86032 9.53033 4.71967C9.38968 4.57902 9.19891 4.5 9 4.5C8.80109 4.5 8.61032 4.57902 8.46967 4.71967C8.32902 4.86032 8.25 5.05109 8.25 5.25V8.6895C8.25008 9.08729 8.40817 9.46876 8.6895 9.75L10.7197 11.7802C10.8612 11.9169 11.0507 11.9925 11.2473 11.9908C11.4439 11.989 11.6321 11.9102 11.7711 11.7711C11.9102 11.6321 11.989 11.4439 11.9908 11.2473C11.9925 11.0507 11.9169 10.8612 11.7802 10.7197L9.75 8.6895V5.25Z" fill="black"/>
</svg>
