<svg width="28" height="28" viewBox="0 0 28 28" fill="none" xmlns="http://www.w3.org/2000/svg">
<path d="M18.4232 2.3344C18.865 2.36204 19.206 2.74077 19.1942 3.19092V4.39829C22.7043 4.73883 24.5 6.67889 24.5 10.1669V19.8155C24.5 23.6956 22.2884 25.6667 17.9362 25.6667H10.0638C5.71159 25.6667 3.5 23.6956 3.5 19.8155V10.1669C3.5 7.84499 4.2913 6.18355 5.91449 5.21353L6.02835 5.14864C6.26365 5.03881 6.53963 5.04888 6.76902 5.18205C7.03664 5.33742 7.19468 5.63355 7.17697 5.94647C7.15927 6.2594 6.96888 6.53513 6.68551 6.65825C5.61015 7.29805 5.1029 8.41255 5.1029 10.1669V10.4764H19.9043C20.347 10.4764 20.7058 10.8414 20.7058 11.2917C20.7058 11.7419 20.347 12.1069 19.9043 12.1069H5.1029V19.8155C5.1029 22.7772 6.54348 24.0052 10.0638 24.0259H17.9362C21.4058 24.0259 22.887 22.7669 22.887 19.8052V10.1565C22.887 7.57668 21.7609 6.32803 19.1942 6.02876V6.81304C19.135 7.23107 18.7752 7.53624 18.3603 7.52031C17.9454 7.50439 17.6092 7.1725 17.5812 6.75112V3.11868L17.596 2.98964C17.629 2.82055 17.7142 2.66524 17.8408 2.54731C17.9991 2.3999 18.2089 2.3232 18.4232 2.3344ZM18.8848 18.8965L19.014 18.9048C19.2355 18.9326 19.4433 19.0342 19.6036 19.1957C19.7961 19.3895 19.9043 19.6536 19.9043 19.9291C19.9043 20.499 19.4501 20.961 18.8899 20.961C18.3296 20.961 17.8754 20.499 17.8754 19.9291C17.8754 19.3591 18.3296 18.8971 18.8899 18.8971L18.8848 18.8965ZM14.0203 18.8971L14.1475 18.9051C14.6478 18.9688 15.0348 19.403 15.0348 19.9291C15.0348 20.499 14.5806 20.961 14.0203 20.961C13.46 20.961 13.0058 20.499 13.0058 19.9291C13.0058 19.3591 13.46 18.8971 14.0203 18.8971ZM9.156 18.8965L9.28502 18.9048C9.50653 18.9326 9.71427 19.0342 9.87465 19.1957C10.0671 19.3895 10.1754 19.6536 10.1754 19.9291C10.1754 20.499 9.72116 20.961 9.16087 20.961C8.60058 20.961 8.14638 20.499 8.14638 19.9291C8.14638 19.3591 8.60058 18.8971 9.16087 18.8971L9.156 18.8965ZM18.8848 14.7175L19.014 14.7254C19.2355 14.7532 19.4433 14.8548 19.6036 15.0163C19.7961 15.2101 19.9043 15.4742 19.9043 15.7497C19.9043 16.3196 19.4501 16.7816 18.8899 16.7816C18.3296 16.7816 17.8754 16.3196 17.8754 15.7497C17.8754 15.1798 18.3296 14.7177 18.8899 14.7177L18.8848 14.7175ZM14.0203 14.7177L14.1475 14.7258C14.6478 14.7895 15.0348 15.2236 15.0348 15.7497C15.0348 16.3196 14.5806 16.7816 14.0203 16.7816C13.46 16.7816 13.0058 16.3196 13.0058 15.7497C13.0058 15.1798 13.46 14.7177 14.0203 14.7177ZM9.156 14.7175L9.28502 14.7254C9.50653 14.7532 9.71427 14.8548 9.87465 15.0163C10.0671 15.2101 10.1754 15.4742 10.1754 15.7497C10.1754 16.3196 9.72116 16.7816 9.16087 16.7816C8.60058 16.7816 8.14638 16.3196 8.14638 15.7497C8.14638 15.1798 8.60058 14.7177 9.16087 14.7177L9.156 14.7175ZM9.61232 2.45752C10.0255 2.45752 10.3727 2.77326 10.4188 3.19092V4.31574H15.0043C15.447 4.31574 15.8058 4.68073 15.8058 5.13097C15.8058 5.58121 15.447 5.94621 15.0043 5.94621H10.3986V6.76144C10.3986 6.97946 10.3127 7.1884 10.1602 7.34158C10.0077 7.49477 9.80127 7.57944 9.58696 7.57668L9.46976 7.56497C9.08791 7.49786 8.80061 7.15686 8.80573 6.75112V3.19092L8.82838 3.06889C8.92202 2.71327 9.24046 2.45752 9.61232 2.45752Z" fill="#200E32"/>
</svg>
