<svg width="26" height="26" viewBox="0 0 26 26" fill="none" xmlns="http://www.w3.org/2000/svg">
<g clip-path="url(#clip0_1_470)">
<path d="M24.2992 11.4724L14.5383 1.71159C13.7258 0.899089 12.2958 0.888255 11.4725 1.71159L1.7225 11.4616C0.877495 12.3066 0.877495 13.6716 1.7225 14.5166L11.4725 24.2666C11.895 24.6891 12.4475 24.8949 13 24.8949C13.5525 24.8949 14.105 24.6891 14.5275 24.2666L24.2667 14.5274C25.1225 13.7041 25.1333 12.3391 24.2992 11.4724ZM13.0108 22.7391L3.26083 12.9891L13.0108 3.23909L22.7608 12.9891L13.0108 22.7391ZM8.66666 11.9166V16.2499H10.8333V12.9999H15.1667V15.7083L18.9583 11.9166L15.1667 8.12492V10.8333H9.74999C9.15416 10.8333 8.66666 11.3208 8.66666 11.9166Z" fill="black"/>
</g>
<defs>
<clipPath id="clip0_1_470">
<rect width="26" height="26" fill="white"/>
</clipPath>
</defs>
</svg>
