<svg width="18" height="18" viewBox="0 0 18 18" fill="none" xmlns="http://www.w3.org/2000/svg">
<path d="M0.900025 5.32497C0.899908 5.17654 0.943831 5.03143 1.02623 4.90798C1.10864 4.78453 1.22581 4.68831 1.36293 4.6315C1.50005 4.57468 1.65094 4.55983 1.7965 4.58882C1.94207 4.61781 2.07576 4.68933 2.18065 4.79434L9.00002 11.6137L15.8194 4.79434C15.8873 4.71745 15.9702 4.65531 16.0631 4.61175C16.156 4.56819 16.2568 4.54415 16.3593 4.5411C16.4619 4.53806 16.5639 4.55608 16.6592 4.59405C16.7545 4.63202 16.841 4.68913 16.9133 4.76185C16.9857 4.83458 17.0423 4.92137 17.0798 5.01686C17.1172 5.11235 17.1347 5.21451 17.1311 5.31702C17.1275 5.41953 17.103 5.52022 17.0589 5.61286C17.0149 5.70549 16.9523 5.78811 16.875 5.85559L9.52502 13.2056C9.45537 13.2753 9.37265 13.3306 9.2816 13.3684C9.19056 13.4061 9.09296 13.4256 8.9944 13.4256C8.89584 13.4256 8.79824 13.4061 8.70719 13.3684C8.61615 13.3306 8.53343 13.2753 8.46377 13.2056L1.12502 5.85559C1.05438 5.78635 0.998134 5.70382 0.959518 5.61275C0.920903 5.52169 0.900684 5.42388 0.900025 5.32497Z" fill="black"/>
</svg>
