<svg width="12" height="8" viewBox="0 0 12 8" fill="none" xmlns="http://www.w3.org/2000/svg">
<path d="M6.1092 7.17C5.9975 7.17061 5.88677 7.15063 5.78336 7.11121C5.67995 7.07179 5.58589 7.01371 5.50659 6.9403L0.414041 2.18774C0.254217 2.03858 0.164429 1.83629 0.164429 1.62535C0.164429 1.41442 0.254217 1.21212 0.414041 1.06297C0.573865 0.913811 0.790633 0.830017 1.01666 0.830017C1.24268 0.830017 1.45945 0.913811 1.61928 1.06297L6.1092 5.26106L10.5991 1.07089C10.7615 0.94112 10.9704 0.873312 11.184 0.881012C11.3976 0.888712 11.6002 0.971354 11.7514 1.11242C11.9025 1.25349 11.9911 1.44259 11.9993 1.64194C12.0076 1.84129 11.9349 2.03621 11.7959 2.18774L6.70333 6.9403C6.54524 7.08663 6.33187 7.16913 6.1092 7.17Z" fill="black"/>
</svg>
