<svg width="32" height="32" viewBox="0 0 32 32" fill="none" xmlns="http://www.w3.org/2000/svg">
<path d="M20.6692 9.1952L17.0532 14.3312C16.9172 14.5252 16.7012 14.6292 16.4812 14.6292C16.3412 14.6292 16.2012 14.5872 16.0792 14.5012C15.7632 14.2792 15.6872 13.8412 15.9092 13.5252L16.1132 13.2352C15.9872 13.1232 15.8612 13.0112 15.7332 12.9032C15.5212 12.7172 15.3072 12.5392 15.0952 12.3672L15.1672 12.2772C15.3872 11.8952 15.5632 11.4852 15.6972 11.0572C15.7892 11.1292 15.8832 11.2052 15.9772 11.2812C16.1652 11.4332 16.3552 11.5912 16.5432 11.7532C16.6712 11.8612 16.7972 11.9712 16.9232 12.0832L19.5232 8.3892C19.7472 8.0732 20.1832 7.9972 20.4992 8.2192C20.8152 8.4432 20.8912 8.8792 20.6692 9.1952ZM26.8812 19.9772C26.7612 20.0572 26.6272 20.0952 26.4932 20.0952C26.2672 20.0952 26.0452 19.9852 25.9112 19.7832C25.2812 18.8392 24.3692 18.3032 23.2012 18.1872C22.7872 18.1452 22.3872 18.1632 22.0252 18.2112C21.5292 18.2792 21.1012 18.4092 20.7912 18.5352C20.5312 18.6432 20.3532 18.7472 20.2872 18.8132C20.0152 19.0852 19.5712 19.0852 19.2992 18.8132C19.0252 18.5392 19.0252 18.0952 19.2992 17.8232C19.4572 17.6652 19.6872 17.5092 19.9692 17.3672C19.8212 17.1732 19.6652 16.9752 19.5032 16.7752H19.5012C18.9032 16.0372 18.2332 15.2932 17.5052 14.5592L17.9712 13.8972L18.3232 13.3972L18.3972 13.4712C19.1972 14.2712 19.9332 15.0852 20.5892 15.8912C20.8692 16.2372 21.1292 16.5752 21.3672 16.9032C21.9812 16.7772 22.6632 16.7252 23.3392 16.7932C24.9232 16.9512 26.2152 17.7152 27.0752 19.0072C27.2892 19.3292 27.2032 19.7632 26.8812 19.9772ZM26.7536 7.4942L20.7838 12.6526C20.4912 12.9054 20.459 13.3476 20.7118 13.64C20.8502 13.8004 21.0454 13.8824 21.2418 13.8824C21.404 13.8824 21.5668 13.8264 21.699 13.712L27.6688 8.5536C27.9614 8.3008 27.9936 7.8588 27.7408 7.5662C27.488 7.2738 27.0458 7.2414 26.7536 7.4942ZM30.9506 12.884C30.8918 12.703 30.7352 12.5712 30.5468 12.5438L28.9912 12.3176L28.2954 10.908C28.211 10.7372 28.0372 10.6292 27.847 10.6292C27.6566 10.6292 27.483 10.7374 27.3986 10.908L26.703 12.3176L25.1474 12.5438C24.9592 12.5712 24.8024 12.703 24.7436 12.884C24.6848 13.065 24.7338 13.2636 24.8702 13.3966L25.9958 14.4938L25.7302 16.0432C25.698 16.2308 25.7752 16.4204 25.929 16.5322C26.0828 16.644 26.2874 16.659 26.4556 16.5702L27.847 15.8386L29.2386 16.5702C29.3116 16.6086 29.3916 16.6276 29.4712 16.6276C29.5748 16.6276 29.678 16.5954 29.7652 16.532C29.9192 16.42 29.9962 16.2306 29.964 16.043L29.6984 14.4936L30.824 13.3964C30.9604 13.2636 31.0094 13.065 30.9506 12.884ZM28.812 13.9612C28.6942 14.076 28.6404 14.2414 28.6682 14.4038L28.807 15.2138L28.0794 14.8314C28.0066 14.7932 27.9266 14.774 27.8468 14.774C27.767 14.774 27.687 14.7932 27.6142 14.8314L26.8868 15.2138L27.0256 14.4038C27.0536 14.2414 26.9996 14.076 26.8818 13.9612L26.2934 13.3876L27.1066 13.2694C27.2694 13.2458 27.4104 13.1434 27.4832 12.996L27.8466 12.259L28.2102 12.996C28.283 13.1436 28.4238 13.2458 28.5868 13.2694L29.4 13.3876L28.812 13.9612ZM5.67281 5.0196L5.40701 6.5692C5.37481 6.7568 5.45201 6.9464 5.60601 7.0582C5.75981 7.17 5.96381 7.1848 6.13261 7.0962L7.52401 6.3646L8.91541 7.0962C8.98861 7.1346 9.06841 7.1536 9.14801 7.1536C9.25181 7.1536 9.35501 7.1214 9.44201 7.058C9.59601 6.9462 9.67321 6.7566 9.64101 6.569L9.37521 5.0196L10.501 3.9224C10.6372 3.7896 10.6864 3.5908 10.6274 3.4098C10.5686 3.2288 10.4122 3.0968 10.2238 3.0694L8.66821 2.8434L7.97241 1.4338C7.88821 1.263 7.71441 1.155 7.52401 1.155C7.33361 1.155 7.15981 1.263 7.07561 1.4338L6.37981 2.8434L4.82421 3.0694C4.63581 3.0968 4.47941 3.2286 4.42061 3.4098C4.36181 3.5908 4.41081 3.7894 4.54701 3.9224L5.67281 5.0196ZM6.78381 3.7954C6.94661 3.7716 7.08761 3.6694 7.16021 3.5218L7.52381 2.7848L7.88741 3.5218C7.96021 3.6694 8.10101 3.7716 8.26381 3.7954L9.07701 3.9136L8.48861 4.4872C8.37081 4.602 8.31701 4.7676 8.34481 4.9298L8.48361 5.7396L7.75641 5.3572C7.61061 5.2806 7.43661 5.2806 7.29101 5.3572L6.56361 5.7396L6.70241 4.9296C6.73021 4.7674 6.67661 4.602 6.55861 4.4872L5.97021 3.9136L6.78381 3.7954Z" fill="black"/>
<path d="M22.4972 18.6712C21.9112 18.7012 21.4012 18.8392 21.0612 18.9692C21.4612 19.6532 21.6272 20.0952 21.6952 20.3512C21.732 20.4908 21.7442 20.5846 21.7468 20.6468L21.734 20.6524C21.6716 20.6496 21.5784 20.6388 21.4452 20.6032C21.1712 20.5292 20.6892 20.3472 19.9352 19.8912C19.2992 19.5052 18.6032 19.0072 17.8672 18.4092C17.0972 17.7852 16.3192 17.0812 15.5552 16.3152C14.7892 15.5492 14.0852 14.7712 13.4612 14.0032C12.8632 13.2672 12.3632 12.5712 11.9792 11.9352C11.5232 11.1812 11.3412 10.6992 11.2672 10.4252C11.2314 10.2914 11.2208 10.198 11.218 10.1356L11.2232 10.1236C11.2836 10.1262 11.3792 10.1382 11.5172 10.1752C11.7912 10.2472 12.2752 10.4292 13.0292 10.8872C13.0692 10.9112 13.1112 10.9372 13.1532 10.9652C13.291 11.049 13.4308 11.1388 13.5724 11.2368C13.476 11.4174 13.3682 11.5906 13.2466 11.7524C13.0142 12.0614 13.0764 12.5002 13.3854 12.7326C13.5114 12.8274 13.6592 12.873 13.8056 12.873C14.0182 12.873 14.228 12.7766 14.3656 12.5938C14.6342 12.2366 14.8564 11.8432 15.0318 11.4246C15.0396 11.4058 15.0462 11.3866 15.054 11.3678C15.09 11.2794 15.1246 11.1904 15.1562 11.1C15.1696 11.062 15.181 11.0232 15.1936 10.985C15.217 10.9136 15.2402 10.8422 15.261 10.7698C15.2648 10.7568 15.2694 10.7444 15.273 10.7314C15.2724 10.731 15.272 10.7306 15.2714 10.7302C15.5682 9.66881 15.5882 8.49381 15.3022 7.34801C14.9002 5.73721 13.9634 4.44981 12.796 3.90441C12.446 3.74061 12.029 3.89201 11.8656 4.24221C11.702 4.59241 11.8532 5.00901 12.2034 5.17261C12.9806 5.53581 13.6476 6.49901 13.9438 7.68661C14.1272 8.42161 14.1544 9.16781 14.036 9.86381C14.0356 9.86361 14.0352 9.86321 14.0348 9.86301C13.9388 9.80301 13.8448 9.74501 13.7528 9.68901C13.0348 9.25301 12.4028 8.96101 11.8768 8.82101C11.1408 8.62701 10.5748 8.72101 10.1948 9.10101C10.011 9.28481 9.8958 9.51201 9.8454 9.77941L1.0834 29.865C0.968204 30.1288 1.0264 30.4362 1.23 30.6398C1.364 30.774 1.5432 30.8448 1.7252 30.8448C1.8196 30.8448 1.9148 30.8256 2.0048 30.7864L22.0826 22.0274C22.354 21.9778 22.5838 21.8602 22.769 21.675C23.149 21.295 23.243 20.729 23.049 19.993C22.9472 19.6072 22.7612 19.1652 22.4972 18.6712ZM10.7812 12.6612C11.1992 13.3512 11.7352 14.0992 12.3732 14.8852C13.0292 15.6912 13.7652 16.5052 14.5652 17.3052C15.3632 18.1052 16.1792 18.8412 16.9852 19.4972C17.7712 20.1352 18.5192 20.6712 19.2092 21.0872C19.4412 21.228 19.663 21.3522 19.8764 21.4628L17.8186 22.3606C14.4122 22.4678 11.1034 21.388 9.2514 19.5346C8.5662 18.8488 8.1506 18.1114 8.0442 17.4104L10.4072 11.9938C10.5174 12.2068 10.641 12.4288 10.7812 12.6612ZM9.7144 25.8958C7.9196 25.8444 6.5438 25.4074 5.8038 24.6446C5.5376 24.3702 5.365 24.0594 5.2876 23.729L7.4524 18.7668C7.709 19.2744 8.0756 19.7722 8.5442 20.241C9.902 21.5998 12.382 22.9506 15.6898 23.289L9.7144 25.8958ZM4.7586 24.942C4.8556 25.08 4.9628 25.2142 5.0862 25.3414C5.5744 25.8446 6.4236 26.4076 7.8704 26.7006L3.0798 28.7906L4.7586 24.942ZM25.2996 5.88401C26.4036 5.88401 27.3018 4.98581 27.3018 3.88181C27.3018 2.77781 26.4036 1.87961 25.2996 1.87961C24.1956 1.87961 23.2974 2.77781 23.2974 3.88181C23.2974 4.98581 24.1956 5.88401 25.2996 5.88401ZM25.2996 2.87961C25.8522 2.87961 26.3018 3.32921 26.3018 3.88181C26.3018 4.43441 25.8522 4.88401 25.2996 4.88401C24.747 4.88401 24.2974 4.43441 24.2974 3.88181C24.2974 3.32921 24.747 2.87961 25.2996 2.87961ZM18.2762 6.94601C19.259 6.94601 20.0584 6.14661 20.0584 5.16381C20.0584 4.18101 19.259 3.38161 18.2762 3.38161C17.2934 3.38161 16.494 4.18101 16.494 5.16381C16.494 6.14661 17.2936 6.94601 18.2762 6.94601ZM18.2762 4.38181C18.7074 4.38181 19.0584 4.73261 19.0584 5.16401C19.0584 5.59541 18.7076 5.94621 18.2762 5.94621C17.8448 5.94621 17.494 5.59541 17.494 5.16401C17.494 4.73261 17.845 4.38181 18.2762 4.38181ZM26.8018 22.3704C25.819 22.3704 25.0196 23.1698 25.0196 24.1524C25.0196 25.1352 25.819 25.9346 26.8018 25.9346C27.7844 25.9346 28.5838 25.1352 28.5838 24.1524C28.5838 23.1698 27.7844 22.3704 26.8018 22.3704ZM26.8018 24.9346C26.3706 24.9346 26.0196 24.5836 26.0196 24.1524C26.0196 23.7212 26.3706 23.3704 26.8018 23.3704C27.233 23.3704 27.5838 23.7212 27.5838 24.1524C27.5838 24.5836 27.233 24.9346 26.8018 24.9346Z" fill="black"/>
</svg>
