<svg width="26" height="26" viewBox="0 0 26 26" fill="none" xmlns="http://www.w3.org/2000/svg">
<path d="M13 24.375C13.1833 24.3739 13.3608 24.3109 13.5038 24.1963C13.8125 23.92 21.9375 17.3713 21.9375 10.5625C21.9375 8.19213 20.9959 5.91884 19.3198 4.24273C17.6437 2.56663 15.3704 1.625 13 1.625C10.6296 1.625 8.35634 2.56663 6.68023 4.24273C5.00413 5.91884 4.0625 8.19213 4.0625 10.5625C4.0625 17.3713 12.1875 23.92 12.4963 24.1963C12.6392 24.3109 12.8167 24.3739 13 24.375ZM5.6875 10.5625C5.6875 8.6231 6.45792 6.76314 7.82928 5.39178C9.20064 4.02042 11.0606 3.25 13 3.25C14.9394 3.25 16.7994 4.02042 18.1707 5.39178C19.5421 6.76314 20.3125 8.6231 20.3125 10.5625C20.3125 15.6813 14.7306 20.9706 13 22.4981C11.2694 20.9706 5.6875 15.6813 5.6875 10.5625Z" fill="black"/>
<path d="M17.0625 10.5625C17.0625 9.75902 16.8242 8.97357 16.3778 8.3055C15.9315 7.63742 15.297 7.11672 14.5547 6.80924C13.8123 6.50176 12.9955 6.42131 12.2074 6.57806C11.4194 6.73481 10.6955 7.12173 10.1274 7.68988C9.55923 8.25803 9.17231 8.9819 9.01556 9.76995C8.85881 10.558 8.93926 11.3748 9.24674 12.1172C9.55422 12.8595 10.0749 13.494 10.743 13.9403C11.4111 14.3867 12.1965 14.625 13 14.625C14.0774 14.625 15.1108 14.197 15.8726 13.4351C16.6345 12.6733 17.0625 11.6399 17.0625 10.5625ZM10.5625 10.5625C10.5625 10.0804 10.7055 9.60914 10.9733 9.2083C11.2411 8.80745 11.6218 8.49503 12.0672 8.31055C12.5126 8.12606 13.0027 8.07779 13.4755 8.17184C13.9484 8.26589 14.3827 8.49804 14.7236 8.83893C15.0645 9.17982 15.2966 9.61414 15.3907 10.087C15.4847 10.5598 15.4364 11.0499 15.252 11.4953C15.0675 11.9407 14.755 12.3214 14.3542 12.5892C13.9534 12.857 13.4821 13 13 13C12.3535 13 11.7335 12.7432 11.2764 12.2861C10.8193 11.829 10.5625 11.209 10.5625 10.5625Z" fill="black"/>
</svg>
