<svg width="30" height="30" viewBox="0 0 30 30" fill="none" xmlns="http://www.w3.org/2000/svg">
<path d="M28.0078 27.3047C28.2187 26.9297 28.2187 26.4844 27.9844 26.1328L23.0391 17.8359C22.8281 17.4844 22.4531 17.2734 22.0312 17.2734C21.6094 17.2734 21.2344 17.4844 21.0234 17.8359L16.0547 26.1094C15.8437 26.4844 15.8203 26.9062 16.0312 27.2812C16.2422 27.6562 16.6172 27.8672 17.0625 27.8672H26.9766C27.4219 27.8906 27.7969 27.6797 28.0078 27.3047ZM22.0312 26.25C21.6328 26.25 21.3281 25.9453 21.3281 25.5469C21.3281 25.1484 21.6328 24.8437 22.0312 24.8437C22.4297 24.8437 22.7344 25.1484 22.7344 25.5469C22.7344 25.9453 22.4297 26.25 22.0312 26.25ZM22.7344 23.2031C22.7344 23.6016 22.4297 23.9062 22.0312 23.9062C21.6328 23.9062 21.3281 23.6016 21.3281 23.2031V20.8594C21.3281 20.4609 21.6328 20.1563 22.0312 20.1563C22.4297 20.1563 22.7344 20.4609 22.7344 20.8594V23.2031Z" fill="#C40000"/>
<path d="M24.375 4.6875H5.625C3.9375 4.6875 2.57812 6.04688 2.57812 7.73438V22.2656C2.57812 23.9531 3.9375 25.3125 5.625 25.3125H13.3594C13.7578 25.3125 14.0625 25.0078 14.0625 24.6094C14.0625 24.2109 13.7578 23.9062 13.3594 23.9062H5.625C4.71094 23.9062 3.98438 23.1797 3.98438 22.2656V7.73438C3.98438 6.82031 4.71094 6.09375 5.625 6.09375H24.375C25.2891 6.09375 26.0156 6.82031 26.0156 7.73438V16.9219C26.0156 17.25 26.2266 17.5312 26.5547 17.6016C26.5547 17.6016 26.5547 17.6016 26.5781 17.6016C27.0234 17.7188 27.4453 17.3672 27.4453 16.9219V7.73438C27.4219 6.04688 26.0625 4.6875 24.375 4.6875Z" fill="black"/>
<path d="M24.1172 11.6718C24.375 11.3671 24.3281 10.9218 24.0235 10.6875C23.7188 10.4296 23.2735 10.4765 23.0391 10.7812C23.0391 10.8046 21.8438 12.1875 20.25 13.5468C18.1875 15.2578 16.3828 16.1718 15 16.1718C13.6172 16.1718 11.8125 15.2578 9.75001 13.5234C8.13282 12.164 6.96095 10.7812 6.96095 10.7578C6.70314 10.4531 6.25782 10.4296 5.97657 10.664C5.67189 10.9218 5.64845 11.3671 5.88282 11.6484C6.09376 11.9062 10.9219 17.5781 15 17.5781C19.0781 17.5781 23.9063 11.9062 24.1172 11.6718Z" fill="black"/>
</svg>
