<svg width="18" height="18" viewBox="0 0 18 18" fill="none" xmlns="http://www.w3.org/2000/svg">
<g clip-path="url(#clip0_2_946)">
<path fill-rule="evenodd" clip-rule="evenodd" d="M0 4.125C0 5.21902 0.434597 6.26823 1.20818 7.04182C1.98177 7.8154 3.03098 8.25 4.125 8.25C5.21902 8.25 6.26823 7.8154 7.04182 7.04182C7.8154 6.26823 8.25 5.21902 8.25 4.125C8.25 3.03098 7.8154 1.98177 7.04182 1.20818C6.26823 0.434597 5.21902 0 4.125 0C3.03098 0 1.98177 0.434597 1.20818 1.20818C0.434597 1.98177 0 3.03098 0 4.125H0ZM4.125 6.75C3.78028 6.75 3.43894 6.6821 3.12046 6.55018C2.80198 6.41827 2.5126 6.22491 2.26884 5.98116C2.02509 5.7374 1.83173 5.44802 1.69982 5.12954C1.5679 4.81106 1.5 4.46972 1.5 4.125C1.5 3.78028 1.5679 3.43894 1.69982 3.12046C1.83173 2.80198 2.02509 2.5126 2.26884 2.26884C2.5126 2.02509 2.80198 1.83173 3.12046 1.69982C3.43894 1.5679 3.78028 1.5 4.125 1.5C4.82119 1.5 5.48887 1.77656 5.98116 2.26884C6.47344 2.76113 6.75 3.42881 6.75 4.125C6.75 4.82119 6.47344 5.48887 5.98116 5.98116C5.48887 6.47344 4.82119 6.75 4.125 6.75ZM0 13.875C0 14.969 0.434597 16.0182 1.20818 16.7918C1.98177 17.5654 3.03098 18 4.125 18C5.21902 18 6.26823 17.5654 7.04182 16.7918C7.8154 16.0182 8.25 14.969 8.25 13.875C8.25 12.781 7.8154 11.7318 7.04182 10.9582C6.26823 10.1846 5.21902 9.75 4.125 9.75C3.03098 9.75 1.98177 10.1846 1.20818 10.9582C0.434597 11.7318 0 12.781 0 13.875H0ZM4.125 16.5C3.42881 16.5 2.76113 16.2234 2.26884 15.7312C1.77656 15.2389 1.5 14.5712 1.5 13.875C1.5 13.1788 1.77656 12.5111 2.26884 12.0188C2.76113 11.5266 3.42881 11.25 4.125 11.25C4.82119 11.25 5.48887 11.5266 5.98116 12.0188C6.47344 12.5111 6.75 13.1788 6.75 13.875C6.75 14.5712 6.47344 15.2389 5.98116 15.7312C5.48887 16.2234 4.82119 16.5 4.125 16.5ZM13.875 18C13.3333 18 12.7969 17.8933 12.2964 17.686C11.796 17.4787 11.3412 17.1749 10.9582 16.7918C10.5751 16.4088 10.2713 15.954 10.064 15.4536C9.8567 14.9531 9.75 14.4167 9.75 13.875C9.75 13.3333 9.8567 12.7969 10.064 12.2964C10.2713 11.796 10.5751 11.3412 10.9582 10.9582C11.3412 10.5751 11.796 10.2713 12.2964 10.064C12.7969 9.8567 13.3333 9.75 13.875 9.75C14.969 9.75 16.0182 10.1846 16.7918 10.9582C17.5654 11.7318 18 12.781 18 13.875C18 14.969 17.5654 16.0182 16.7918 16.7918C16.0182 17.5654 14.969 18 13.875 18ZM11.25 13.875C11.25 14.5712 11.5266 15.2389 12.0188 15.7312C12.5111 16.2234 13.1788 16.5 13.875 16.5C14.5712 16.5 15.2389 16.2234 15.7312 15.7312C16.2234 15.2389 16.5 14.5712 16.5 13.875C16.5 13.1788 16.2234 12.5111 15.7312 12.0188C15.2389 11.5266 14.5712 11.25 13.875 11.25C13.1788 11.25 12.5111 11.5266 12.0188 12.0188C11.5266 12.5111 11.25 13.1788 11.25 13.875ZM9.75 4.125C9.75 4.6667 9.8567 5.2031 10.064 5.70357C10.2713 6.20404 10.5751 6.65877 10.9582 7.04182C11.3412 7.42486 11.796 7.7287 12.2964 7.936C12.7969 8.1433 13.3333 8.25 13.875 8.25C14.4167 8.25 14.9531 8.1433 15.4536 7.936C15.954 7.7287 16.4088 7.42486 16.7918 7.04182C17.1749 6.65877 17.4787 6.20404 17.686 5.70357C17.8933 5.2031 18 4.6667 18 4.125C18 3.03098 17.5654 1.98177 16.7918 1.20818C16.0182 0.434597 14.969 8.69279e-08 13.875 8.69279e-08C12.781 8.69279e-08 11.7318 0.434597 10.9582 1.20818C10.1846 1.98177 9.75 3.03098 9.75 4.125ZM13.875 6.75C13.5303 6.75 13.1889 6.6821 12.8705 6.55018C12.552 6.41827 12.2626 6.22491 12.0188 5.98116C11.7751 5.7374 11.5817 5.44802 11.4498 5.12954C11.3179 4.81106 11.25 4.46972 11.25 4.125C11.25 3.78028 11.3179 3.43894 11.4498 3.12046C11.5817 2.80198 11.7751 2.5126 12.0188 2.26884C12.2626 2.02509 12.552 1.83173 12.8705 1.69982C13.1889 1.5679 13.5303 1.5 13.875 1.5C14.5712 1.5 15.2389 1.77656 15.7312 2.26884C16.2234 2.76113 16.5 3.42881 16.5 4.125C16.5 4.82119 16.2234 5.48887 15.7312 5.98116C15.2389 6.47344 14.5712 6.75 13.875 6.75Z" fill="black"/>
</g>
<defs>
<clipPath id="clip0_2_946">
<rect width="18" height="18" fill="white"/>
</clipPath>
</defs>
</svg>
