<svg width="19" height="19" viewBox="0 0 19 19" fill="none" xmlns="http://www.w3.org/2000/svg">
<path d="M3.95833 14.2501H7.31499C7.41918 14.2507 7.52247 14.2307 7.61892 14.1914C7.71537 14.152 7.8031 14.0939 7.87708 14.0205L13.3554 8.53428L15.6037 6.33345C15.6779 6.25985 15.7368 6.17229 15.777 6.07582C15.8172 5.97935 15.8379 5.87587 15.8379 5.77137C15.8379 5.66686 15.8172 5.56338 15.777 5.46691C15.7368 5.37044 15.6779 5.28288 15.6037 5.20928L12.2471 1.81303C12.1735 1.73883 12.0859 1.67993 11.9895 1.63974C11.893 1.59955 11.7895 1.57886 11.685 1.57886C11.5805 1.57886 11.477 1.59955 11.3805 1.63974C11.2841 1.67993 11.1965 1.73883 11.1229 1.81303L8.89041 4.05345L3.39624 9.5397C3.32287 9.61367 3.26482 9.7014 3.22543 9.79786C3.18603 9.89431 3.16606 9.99759 3.16666 10.1018V13.4585C3.16666 13.6684 3.25007 13.8698 3.39854 14.0182C3.547 14.1667 3.74836 14.2501 3.95833 14.2501ZM11.685 3.49136L13.9254 5.73178L12.8012 6.85595L10.5608 4.61553L11.685 3.49136ZM4.74999 10.4264L9.44458 5.73178L11.685 7.9722L6.99041 12.6668H4.74999V10.4264ZM16.625 15.8335H2.37499C2.16503 15.8335 1.96367 15.9169 1.8152 16.0653C1.66674 16.2138 1.58333 16.4152 1.58333 16.6251C1.58333 16.8351 1.66674 17.0364 1.8152 17.1849C1.96367 17.3334 2.16503 17.4168 2.37499 17.4168H16.625C16.835 17.4168 17.0363 17.3334 17.1848 17.1849C17.3333 17.0364 17.4167 16.8351 17.4167 16.6251C17.4167 16.4152 17.3333 16.2138 17.1848 16.0653C17.0363 15.9169 16.835 15.8335 16.625 15.8335Z" fill="black"/>
</svg>
