<svg width="26" height="26" viewBox="0 0 26 26" fill="none" xmlns="http://www.w3.org/2000/svg">
<g clip-path="url(#clip0_1_473)">
<path d="M19.0531 17.0057C18.8267 16.7784 18.5576 16.5981 18.2613 16.4751C17.965 16.3521 17.6474 16.2887 17.3266 16.2887C17.0058 16.2887 16.6881 16.3521 16.3918 16.4751C16.0955 16.5981 15.8265 16.7784 15.6 17.0057L14.4219 18.1838C13.0954 17.3419 11.8664 16.3555 10.7575 15.2425C9.64693 14.1315 8.66069 12.9028 7.81626 11.5782L8.99438 10.4C9.22162 10.1736 9.40193 9.90449 9.52495 9.60821C9.64798 9.31193 9.71131 8.99427 9.71131 8.67346C9.71131 8.35265 9.64798 8.035 9.52495 7.73872C9.40193 7.44244 9.22162 7.17335 8.99438 6.9469L6.69501 4.65565C6.47176 4.42766 6.20495 4.24687 5.91044 4.12405C5.61593 4.00122 5.29973 3.93885 4.98064 3.94065C4.65928 3.93986 4.34093 4.00263 4.04393 4.12534C3.74692 4.24804 3.4771 4.42827 3.25001 4.65565L2.14501 5.75252C1.61832 6.31881 1.22524 6.99593 0.994644 7.73411C0.764051 8.47229 0.701815 9.25276 0.81251 10.0182C1.07251 13.065 3.07126 16.7294 6.15064 19.8169C9.23001 22.9044 12.935 24.895 15.9819 25.1875C16.2092 25.1997 16.437 25.1997 16.6644 25.1875C17.3203 25.2151 17.975 25.1114 18.5903 24.8826C19.2056 24.6538 19.769 24.3044 20.2475 23.855L21.3444 22.75C21.5718 22.5229 21.752 22.2531 21.8747 21.9561C21.9974 21.6591 22.0602 21.3408 22.0594 21.0194C22.0612 20.7003 21.9988 20.3841 21.876 20.0896C21.7532 19.7951 21.5724 19.5283 21.3444 19.305L19.0531 17.0057ZM20.1988 21.6044L19.0938 22.7013C18.6852 23.0418 18.2082 23.2905 17.6952 23.4307C17.1821 23.5709 16.645 23.5992 16.12 23.5138C13.4794 23.2863 10.1156 21.4175 7.33688 18.6388C4.55813 15.86 2.68938 12.5207 2.43751 9.88003C2.34989 9.35508 2.37716 8.81738 2.51743 8.30399C2.6577 7.7906 2.90763 7.31374 3.25001 6.90628L4.39563 5.80128C4.47155 5.72597 4.56159 5.66639 4.66059 5.62596C4.75958 5.58553 4.86558 5.56503 4.97251 5.56565C5.07944 5.56503 5.18544 5.58553 5.28443 5.62596C5.38343 5.66639 5.47346 5.72597 5.54939 5.80128L7.84876 8.12503C8.00009 8.27726 8.08503 8.48319 8.08503 8.69784C8.08503 8.91249 8.00009 9.11842 7.84876 9.27065L6.22376 10.8957C6.0966 11.0222 6.01489 11.1872 5.99138 11.3651C5.96786 11.5429 6.00386 11.7235 6.09376 11.8788C7.06664 13.535 8.24911 15.0588 9.61189 16.4125C10.9656 17.7753 12.4894 18.9578 14.1456 19.9307C14.3009 20.0206 14.4815 20.0566 14.6593 20.033C14.8372 20.0095 15.0022 19.9278 15.1288 19.8007L16.7538 18.1757C16.906 18.0243 17.1119 17.9394 17.3266 17.9394C17.5412 17.9394 17.7472 18.0243 17.8994 18.1757L20.1988 20.475C20.2741 20.5509 20.3336 20.641 20.3741 20.74C20.4145 20.839 20.435 20.945 20.4344 21.0519C20.4293 21.2594 20.345 21.4571 20.1988 21.6044ZM21.6125 4.3794C20.4833 3.24594 19.141 2.34721 17.6628 1.73502C16.1847 1.12284 14.5999 0.809314 13 0.812524C12.7845 0.812524 12.5779 0.898127 12.4255 1.0505C12.2731 1.20287 12.1875 1.40954 12.1875 1.62502C12.1875 1.84051 12.2731 2.04718 12.4255 2.19955C12.5779 2.35192 12.7845 2.43752 13 2.43752C14.3946 2.43747 15.7755 2.71362 17.0629 3.25001C18.3502 3.78641 19.5186 4.57244 20.5006 5.56274C21.4826 6.55305 22.2588 7.72802 22.7843 9.01985C23.3098 10.3117 23.5743 11.6948 23.5625 13.0894C23.5625 13.3049 23.6481 13.5116 23.8005 13.6639C23.9529 13.8163 24.1595 13.9019 24.375 13.9019C24.5905 13.9019 24.7972 13.8163 24.9495 13.6639C25.1019 13.5116 25.1875 13.3049 25.1875 13.0894C25.2031 11.4725 24.8948 9.86879 24.2808 8.37289C23.6668 6.87699 22.7595 5.51914 21.6125 4.3794Z" fill="black"/>
<path d="M16.9894 9.02688C17.4505 9.4852 17.8153 10.0311 18.0622 10.6325C18.3092 11.2339 18.4334 11.8786 18.4275 12.5288C18.4275 12.7442 18.5131 12.9509 18.6655 13.1033C18.8178 13.2557 19.0245 13.3413 19.24 13.3413C19.4555 13.3413 19.6621 13.2557 19.8145 13.1033C19.9669 12.9509 20.0525 12.7442 20.0525 12.5288C20.0632 11.6684 19.9031 10.8144 19.5812 10.0164C19.2594 9.21834 18.7823 8.49216 18.1777 7.87995C17.573 7.26774 16.8528 6.78167 16.0588 6.44995C15.2649 6.11822 14.413 5.94744 13.5525 5.94751C13.337 5.94751 13.1303 6.03311 12.978 6.18549C12.8256 6.33786 12.74 6.54452 12.74 6.76001C12.74 6.9755 12.8256 7.18216 12.978 7.33453C13.1303 7.48691 13.337 7.57251 13.5525 7.57251C14.1928 7.57733 14.8259 7.70826 15.4156 7.9578C16.0053 8.20735 16.5401 8.57062 16.9894 9.02688Z" fill="black"/>
</g>
<defs>
<clipPath id="clip0_1_473">
<rect width="26" height="26" fill="white"/>
</clipPath>
</defs>
</svg>
