<svg width="16" height="16" viewBox="0 0 16 16" fill="none" xmlns="http://www.w3.org/2000/svg">
<g clip-path="url(#clip0_1_177)">
<path d="M10.6601 -0.00125122C9.43035 -0.00125122 8.39877 0.853589 8.09955 1.99631H0.682979C0.506401 1.99631 0.337055 2.06662 0.212195 2.19178C0.0873353 2.31693 0.0171898 2.48668 0.0171898 2.66368C0.0171898 2.84068 0.0873353 3.01043 0.212195 3.13558C0.337055 3.26074 0.506401 3.33105 0.682979 3.33105H8.09825C8.39598 4.47485 9.4288 5.32861 10.6601 5.32861C11.8914 5.32861 12.9283 4.47485 13.2271 3.33105H15.32C15.4965 3.33105 15.6659 3.26074 15.7907 3.13558C15.9156 3.01043 15.9857 2.84068 15.9857 2.66368C15.9857 2.48668 15.9156 2.31693 15.7907 2.19178C15.6659 2.06662 15.4965 1.99631 15.32 1.99631H13.2258C12.9255 0.853589 11.8898 -0.00125122 10.6601 -0.00125122ZM10.6601 1.33219C11.4026 1.33219 11.9904 1.9226 11.9904 2.66694C11.9904 3.41127 11.4026 4.00038 10.6601 4.00038C9.9175 4.00038 9.33499 3.41127 9.33499 2.66694C9.33499 1.9226 9.9175 1.33219 10.6601 1.33219ZM5.34285 5.32861C4.11114 5.32861 3.07424 6.18718 2.77583 7.33268H0.682979C0.661773 7.33166 0.64053 7.33166 0.619323 7.33268C0.445686 7.34493 0.283731 7.42482 0.168123 7.55526C0.0525155 7.6857 -0.00755784 7.85632 0.000761979 8.0306C0.0090818 8.20488 0.0851336 8.36897 0.212639 8.48775C0.340143 8.60653 0.508969 8.67055 0.682979 8.66612H2.77713C3.07746 9.80884 4.11313 10.6637 5.34285 10.6637C6.57258 10.6637 7.60825 9.80884 7.90858 8.66612H15.32C15.4085 8.66809 15.4966 8.6523 15.579 8.61968C15.6615 8.58706 15.7365 8.53826 15.7999 8.47616C15.8632 8.41405 15.9136 8.33989 15.9479 8.25802C15.9823 8.17615 16 8.08822 16 7.9994C16 7.91058 15.9823 7.82265 15.9479 7.74078C15.9136 7.65891 15.8632 7.58475 15.7999 7.52264C15.7365 7.46054 15.6615 7.41174 15.579 7.37912C15.4966 7.3465 15.4085 7.33071 15.32 7.33268H7.90988C7.61147 6.18718 6.57457 5.32861 5.34285 5.32861ZM5.34285 6.66205C6.08543 6.66205 6.67313 7.25246 6.67313 7.9968C6.67313 8.74113 6.08543 9.33024 5.34285 9.33024C4.60028 9.33024 4.01258 8.74113 4.01258 7.9968C4.01258 7.25246 4.60028 6.66205 5.34285 6.66205ZM10.6601 10.6637C9.42836 10.6637 8.39556 11.5222 8.09825 12.6678H0.682979C0.661773 12.6667 0.64053 12.6667 0.619323 12.6678C0.445689 12.68 0.283736 12.7599 0.168131 12.8903C0.0525262 13.0208 -0.00754557 13.1914 0.000774155 13.3657C0.00909388 13.5399 0.0851439 13.704 0.212646 13.8228C0.340149 13.9416 0.508971 14.0056 0.682979 14.0012H8.09955C8.39877 15.1439 9.43035 15.9988 10.6601 15.9988C11.8898 15.9988 12.9255 15.1439 13.2258 14.0012H15.32C15.4938 13.9973 15.6592 13.9254 15.7808 13.8008C15.9024 13.6762 15.9705 13.5088 15.9705 13.3345C15.9705 13.1602 15.9024 12.9928 15.7808 12.8682C15.6592 12.7436 15.4938 12.6716 15.32 12.6678H13.2271C12.9287 11.5222 11.8918 10.6637 10.6601 10.6637ZM10.6601 11.9971C11.4026 11.9971 11.9904 12.5875 11.9904 13.3319C11.9904 14.0762 11.4026 14.6653 10.6601 14.6653C9.9175 14.6653 9.33499 14.0762 9.33499 13.3319C9.33499 12.5875 9.9175 11.9971 10.6601 11.9971Z" fill="black"/>
</g>
<defs>
<clipPath id="clip0_1_177">
<rect width="16" height="16" fill="white"/>
</clipPath>
</defs>
</svg>
