<svg width="30" height="30" viewBox="0 0 30 30" fill="none" xmlns="http://www.w3.org/2000/svg">
<path d="M10.3125 27.1875C10.0639 27.1875 9.8254 27.2863 9.64959 27.4621C9.47377 27.6379 9.375 27.8764 9.375 28.125C9.375 28.3736 9.47377 28.6121 9.64959 28.7879C9.8254 28.9637 10.0639 29.0625 10.3125 29.0625H19.6875C19.9361 29.0625 20.1746 28.9637 20.3504 28.7879C20.5262 28.6121 20.625 28.3736 20.625 28.125C20.625 27.8764 20.5262 27.6379 20.3504 27.4621C20.1746 27.2863 19.9361 27.1875 19.6875 27.1875H10.3125ZM15 21.5625C16.7399 21.5605 18.4079 20.8685 19.6382 19.6382C20.8685 18.4079 21.5605 16.7399 21.5625 15V7.5C21.5625 5.75952 20.8711 4.09032 19.6404 2.85961C18.4097 1.6289 16.7405 0.9375 15 0.9375C13.2595 0.9375 11.5903 1.6289 10.3596 2.85961C9.1289 4.09032 8.4375 5.75952 8.4375 7.5V15C8.43949 16.7399 9.13153 18.4079 10.3618 19.6382C11.5921 20.8685 13.2601 21.5605 15 21.5625V21.5625ZM10.3125 7.5C10.3125 6.2568 10.8064 5.06451 11.6854 4.18544C12.5645 3.30636 13.7568 2.8125 15 2.8125C16.2432 2.8125 17.4355 3.30636 18.3146 4.18544C19.1936 5.06451 19.6875 6.2568 19.6875 7.5V15C19.6875 16.2432 19.1936 17.4355 18.3146 18.3146C17.4355 19.1936 16.2432 19.6875 15 19.6875C13.7568 19.6875 12.5645 19.1936 11.6854 18.3146C10.8064 17.4355 10.3125 16.2432 10.3125 15V7.5Z" fill="black"/>
<path d="M25.3125 15C25.3125 14.7514 25.2137 14.5129 25.0379 14.3371C24.8621 14.1613 24.6236 14.0625 24.375 14.0625C24.1264 14.0625 23.8879 14.1613 23.7121 14.3371C23.5363 14.5129 23.4375 14.7514 23.4375 15C23.4375 17.2378 22.5486 19.3839 20.9662 20.9662C19.3839 22.5486 17.2378 23.4375 15 23.4375C12.7622 23.4375 10.6161 22.5486 9.03379 20.9662C7.45145 19.3839 6.5625 17.2378 6.5625 15C6.5625 14.7514 6.46373 14.5129 6.28791 14.3371C6.1121 14.1613 5.87364 14.0625 5.625 14.0625C5.37636 14.0625 5.1379 14.1613 4.96209 14.3371C4.78627 14.5129 4.6875 14.7514 4.6875 15C4.6875 17.735 5.77399 20.3581 7.70796 22.292C9.64193 24.226 12.265 25.3125 15 25.3125C17.735 25.3125 20.3581 24.226 22.292 22.292C24.226 20.3581 25.3125 17.735 25.3125 15ZM14.0625 8.4375H15.9375C16.1861 8.4375 16.4246 8.33873 16.6004 8.16291C16.7762 7.9871 16.875 7.74864 16.875 7.5C16.875 7.25136 16.7762 7.0129 16.6004 6.83709C16.4246 6.66127 16.1861 6.5625 15.9375 6.5625H14.0625C13.8139 6.5625 13.5754 6.66127 13.3996 6.83709C13.2238 7.0129 13.125 7.25136 13.125 7.5C13.125 7.74864 13.2238 7.9871 13.3996 8.16291C13.5754 8.33873 13.8139 8.4375 14.0625 8.4375V8.4375ZM13.125 12.1875H16.875C17.1236 12.1875 17.3621 12.0887 17.5379 11.9129C17.7137 11.7371 17.8125 11.4986 17.8125 11.25C17.8125 11.0014 17.7137 10.7629 17.5379 10.5871C17.3621 10.4113 17.1236 10.3125 16.875 10.3125H13.125C12.8764 10.3125 12.6379 10.4113 12.4621 10.5871C12.2863 10.7629 12.1875 11.0014 12.1875 11.25C12.1875 11.4986 12.2863 11.7371 12.4621 11.9129C12.6379 12.0887 12.8764 12.1875 13.125 12.1875V12.1875Z" fill="black"/>
<path d="M15.9375 14.0625H14.0625C13.8139 14.0625 13.5754 14.1613 13.3996 14.3371C13.2238 14.5129 13.125 14.7514 13.125 15C13.125 15.2486 13.2238 15.4871 13.3996 15.6629C13.5754 15.8387 13.8139 15.9375 14.0625 15.9375H15.9375C16.1861 15.9375 16.4246 15.8387 16.6004 15.6629C16.7762 15.4871 16.875 15.2486 16.875 15C16.875 14.7514 16.7762 14.5129 16.6004 14.3371C16.4246 14.1613 16.1861 14.0625 15.9375 14.0625Z" fill="black"/>
</svg>
