<svg width="30" height="30" viewBox="0 0 30 30" fill="none" xmlns="http://www.w3.org/2000/svg">
<path d="M27.4426 13.8525C27.4426 13.852 27.4421 13.8516 27.442 13.8511C26.896 7.86613 22.1351 3.10478 16.1503 2.55806C16.1493 2.55798 16.1485 2.55745 16.1475 2.55737C15.7678 2.52319 15.387 2.5 15 2.5C10.4893 2.5 6.54869 4.89723 4.35051 8.47916C4.3502 8.47961 4.34967 8.47977 4.34937 8.48022C4.3483 8.48198 4.34753 8.48404 4.34647 8.48579C3.75923 9.44405 3.29643 10.4839 2.98309 11.5898C2.97134 11.6309 2.96257 11.6725 2.9512 11.7137C2.82478 12.178 2.72644 12.6526 2.65388 13.1367C2.63893 13.2348 2.62169 13.3318 2.6091 13.4302C2.5444 13.9455 2.5 14.4671 2.5 15C2.5 15.0072 2.50107 15.014 2.50107 15.0211C2.50107 15.0262 2.5 15.0314 2.5 15.0366C2.50046 15.3529 2.5251 15.6629 2.54868 15.9732C2.55333 16.0309 2.55219 16.0898 2.55737 16.1475C2.55745 16.148 2.55775 16.1485 2.55783 16.1491C3.13095 22.5195 8.48213 27.5096 15 27.5C15.4015 27.5007 15.8004 27.4761 16.1973 27.4382C16.2884 27.4294 16.3776 27.4155 16.468 27.4048C16.768 27.3695 17.0658 27.3246 17.3615 27.2676C17.4716 27.2464 17.5808 27.2233 17.6899 27.1992C17.9639 27.1386 18.2348 27.0683 18.5037 26.9893C18.6123 26.9575 18.7213 26.9277 18.8287 26.8931C19.1081 26.8027 19.383 26.7001 19.6555 26.59C19.7237 26.5625 19.7954 26.5424 19.863 26.5138C19.8789 26.5071 19.8936 26.4982 19.9095 26.4914C20.248 26.3458 20.5807 26.1866 20.9057 26.011C21.0446 25.9362 21.1759 25.8501 21.3116 25.7703C21.487 25.6667 21.6635 25.5652 21.8342 25.4527C22.0285 25.3252 22.2144 25.1875 22.401 25.0497C22.4681 24.9999 22.5388 24.9561 22.605 24.9048C22.6109 24.9002 22.6123 24.8922 22.6181 24.8874C22.7265 24.8036 22.8416 24.7283 22.9472 24.6412C23.5642 24.1317 24.1317 23.5642 24.6412 22.9472C26.4242 20.7873 27.4965 18.0189 27.5001 15C27.5001 14.6118 27.4769 14.2322 27.4426 13.8525ZM16.875 5C16.8727 4.63608 16.8493 4.273 16.8137 3.91113C21.5678 4.68819 25.3123 8.433 26.089 13.1874C25.0412 13.0842 23.9835 13.1157 22.9431 13.2935C21.3263 13.5697 19.8438 14.1635 18.5463 14.9984C17.4652 13.7177 16.2222 12.5859 14.8485 11.6268C16.1253 9.73419 16.8722 7.45438 16.875 5ZM15 3.75C15.1836 3.75023 15.3625 3.76907 15.5441 3.778C15.5959 4.1832 15.6235 4.59137 15.625 5C15.6223 7.20154 14.9508 9.24614 13.803 10.9421C11.4705 9.5295 8.8205 8.60603 5.99159 8.28995C8.04268 5.54214 11.3082 3.75404 15 3.75ZM3.76892 15.3748C3.76366 15.2152 3.75374 15.056 3.75534 14.8959C3.75755 14.6803 3.77419 14.4682 3.78838 14.2555C3.79929 14.0929 3.80379 13.9304 3.82187 13.7679C3.84026 13.601 3.87215 13.4386 3.8977 13.274C3.93066 13.064 3.95843 12.8539 4.0036 12.6449C4.0213 12.5623 4.04701 12.4828 4.06647 12.401C4.13551 12.1131 4.20792 11.8256 4.30077 11.5411C4.30275 11.5348 4.30557 11.5288 4.30763 11.5224C4.5388 10.8185 4.84253 10.1269 5.22339 9.45801C8.05489 9.67476 10.7041 10.5576 13.0279 11.9387C11.0799 14.1898 8.20984 15.6212 5 15.625C4.59122 15.6235 4.18304 15.5959 3.77747 15.544C3.7748 15.4875 3.77083 15.4315 3.76892 15.3748ZM12.5562 25.976C12.4347 25.9491 12.3164 25.9145 12.1964 25.8836C11.8378 25.7915 11.4831 25.6814 11.1326 25.5532C11.0148 25.51 10.8951 25.4707 10.7792 25.4238C10.3565 25.2528 9.94148 25.0555 9.53636 24.8307C9.34082 24.7218 9.15176 24.6027 8.96355 24.4827C8.85506 24.4138 8.74413 24.3475 8.63876 24.2754C8.41759 24.1235 8.20427 23.9609 7.99484 23.7939C7.92641 23.7395 7.85606 23.6869 7.78915 23.6312C7.565 23.4438 7.34985 23.2463 7.14111 23.0422C7.09488 22.9971 7.0472 22.9532 7.0018 22.9074C6.79367 22.6969 6.59576 22.4767 6.40465 22.2503C6.36124 22.1988 6.31653 22.1483 6.27411 22.096C6.09703 21.8785 5.93056 21.6523 5.76988 21.4218C5.71831 21.3475 5.66544 21.2741 5.61584 21.1987C5.47722 20.9892 5.34866 20.7726 5.22392 20.5536C5.16281 20.4457 5.10078 20.3384 5.04341 20.2287C4.94194 20.0359 4.84962 19.838 4.75922 19.6387C4.69498 19.4964 4.63013 19.3542 4.57199 19.2094C4.5002 19.0318 4.43672 18.85 4.37386 18.668C4.31602 18.4997 4.25804 18.3314 4.20822 18.1606C4.15741 17.9868 4.11499 17.8096 4.07242 17.6324C4.02962 17.4541 3.98643 17.2758 3.95233 17.0955C3.93478 17.0026 3.92448 16.9072 3.9093 16.8134C4.27185 16.8491 4.63547 16.8727 5 16.875C8.65173 16.8708 11.9145 15.2176 14.0926 12.6232C15.3687 13.5087 16.5244 14.5536 17.5323 15.7356C14.5171 18.1664 12.7926 22.0131 13.193 26.078C12.9806 26.0436 12.7669 26.0227 12.5562 25.976ZM21.5129 24.1559C21.0827 24.4632 20.6358 24.7375 20.1755 24.9775C20.1502 24.9906 20.1239 25.0017 20.0986 25.0146C19.6748 25.2314 19.239 25.4158 18.7962 25.5756C18.732 25.5986 18.669 25.624 18.6043 25.6459C18.1332 25.8062 17.6545 25.9381 17.1695 26.0342C17.1341 26.0412 17.0973 26.0441 17.0618 26.0507C16.6357 26.1308 16.2053 26.1797 15.7737 26.2102C15.6408 26.2194 15.5075 26.2263 15.3734 26.2308C15.0675 26.2414 14.7616 26.2291 14.4555 26.2147C14.4041 25.8117 14.3765 25.4062 14.375 25C14.379 21.6632 15.9219 18.69 18.3289 16.7423C19.9062 18.8844 21.0349 21.3878 21.541 24.1349C21.5314 24.1417 21.5224 24.1491 21.5129 24.1559ZM22.6217 23.251C22.033 20.5791 20.9016 18.1332 19.3488 16.0194C20.9867 14.9856 22.9204 14.3775 25 14.375C25.4086 14.3765 25.8168 14.4041 26.222 14.4559C26.2309 14.6375 26.2498 14.8164 26.25 15C26.2464 18.2654 24.8448 21.1961 22.6217 23.251Z" fill="black"/>
</svg>
