<svg width="32" height="32" viewBox="0 0 32 32" fill="none" xmlns="http://www.w3.org/2000/svg">
<path d="M3.21484 26.8271C3.21484 26.7608 3.1629 26.7089 3.09705 26.7089C3.03119 26.7089 2.97878 26.7608 2.97878 26.8271C2.97946 27.0016 2.94559 27.1745 2.87912 27.3359C2.81266 27.4972 2.71492 27.6438 2.59153 27.7672C2.46814 27.8906 2.32155 27.9883 2.16021 28.0548C1.99887 28.1213 1.82597 28.1551 1.65148 28.1544C1.6359 28.1543 1.62044 28.1572 1.606 28.1631C1.59157 28.1689 1.57846 28.1777 1.56744 28.1887C1.55642 28.1997 1.54772 28.2128 1.54184 28.2272C1.53596 28.2417 1.53303 28.2571 1.53322 28.2727C1.53322 28.3386 1.58516 28.3905 1.65148 28.3905C2.00347 28.3909 2.34093 28.5309 2.58978 28.7798C2.83863 29.0288 2.97854 29.3663 2.97878 29.7183C2.97878 29.7841 3.03073 29.8361 3.09705 29.8361C3.16336 29.8361 3.21484 29.7841 3.21484 29.7183C3.21417 29.5437 3.24805 29.3708 3.31454 29.2094C3.38103 29.048 3.4788 28.9013 3.60223 28.7779C3.72566 28.6545 3.8723 28.5567 4.0337 28.4902C4.1951 28.4237 4.36806 28.3898 4.54261 28.3905C4.55811 28.3906 4.57349 28.3877 4.58784 28.3818C4.60218 28.3759 4.61522 28.3672 4.62618 28.3563C4.63714 28.3453 4.64582 28.3323 4.65169 28.3179C4.65757 28.3036 4.66053 28.2882 4.66041 28.2727C4.66059 28.2572 4.65768 28.2417 4.65183 28.2273C4.64598 28.2129 4.63732 28.1998 4.62635 28.1888C4.61538 28.1778 4.60232 28.1691 4.58794 28.1632C4.57357 28.1573 4.55815 28.1543 4.54261 28.1544C4.3681 28.1551 4.19517 28.1213 4.03381 28.0548C3.87244 27.9883 3.72582 27.8906 3.6024 27.7672C3.47897 27.6438 3.38119 27.4973 3.31467 27.3359C3.24816 27.1746 3.21423 27.0017 3.21484 26.8271V26.8271ZM5.73171 7.84048C5.73171 7.9323 5.80406 8.00419 5.89589 8.00419C5.98771 8.00419 6.06006 7.9323 6.06006 7.84001C6.05914 7.59744 6.10625 7.35709 6.19866 7.13282C6.29108 6.90854 6.42698 6.70478 6.59852 6.53328C6.77007 6.36177 6.97386 6.22593 7.19816 6.13357C7.42246 6.04121 7.66282 5.99416 7.90539 5.99514C7.92698 5.99533 7.94839 5.99121 7.96837 5.98302C7.98835 5.97483 8.00649 5.96273 8.02173 5.94744C8.03698 5.93216 8.04902 5.91398 8.05716 5.89398C8.06529 5.87398 8.06935 5.85256 8.0691 5.83097C8.06935 5.80938 8.06529 5.78796 8.05716 5.76796C8.04902 5.74796 8.03698 5.72978 8.02173 5.71449C8.00649 5.6992 7.98835 5.68711 7.96837 5.67892C7.94839 5.67073 7.92698 5.66661 7.90539 5.66679C7.66272 5.66778 7.42226 5.6207 7.19788 5.52829C6.97349 5.43588 6.76962 5.29996 6.59803 5.12836C6.42644 4.95677 6.29051 4.7529 6.1981 4.52851C6.10569 4.30413 6.05861 4.06367 6.0596 3.821C6.0596 3.72964 5.98771 3.65729 5.89589 3.65729C5.80406 3.65729 5.73171 3.72964 5.73171 3.82146C5.73269 4.06407 5.68563 4.30447 5.59324 4.5288C5.50085 4.75313 5.36497 4.95695 5.19341 5.1285C5.02186 5.30005 4.81805 5.43594 4.59372 5.52833C4.36939 5.62072 4.12899 5.66778 3.88638 5.66679C3.86475 5.66655 3.84329 5.67062 3.82326 5.67879C3.80323 5.68695 3.78503 5.69903 3.76974 5.71433C3.75444 5.72962 3.74236 5.74782 3.73419 5.76785C3.72603 5.78788 3.72196 5.80934 3.7222 5.83097C3.72196 5.8526 3.72603 5.87406 3.73419 5.89409C3.74236 5.91412 3.75444 5.93232 3.76974 5.94761C3.78503 5.96291 3.80323 5.97499 3.82326 5.98315C3.84329 5.99131 3.86475 5.99539 3.88638 5.99514C4.3756 5.99551 4.84468 6.18998 5.19066 6.53587C5.53663 6.88176 5.73122 7.35079 5.73171 7.84001V7.84048ZM20.9943 26.8471C20.9943 26.7822 20.9433 26.7311 20.8775 26.7311C20.8116 26.7311 20.7615 26.7822 20.7615 26.8471C20.7615 27.5798 20.1725 28.1563 19.4523 28.1563C19.3874 28.1563 19.3359 28.2073 19.3359 28.2722C19.3359 28.3376 19.3869 28.3891 19.4523 28.3891C19.7993 28.3895 20.132 28.5275 20.3773 28.7728C20.6227 29.0182 20.7607 29.3509 20.761 29.6979C20.761 29.7628 20.8121 29.8143 20.8775 29.8143C20.9428 29.8143 20.9943 29.7633 20.9943 29.6983C20.9935 29.5262 21.0268 29.3557 21.0923 29.1965C21.1578 29.0373 21.2542 28.8927 21.3758 28.771C21.4975 28.6492 21.6421 28.5528 21.8013 28.4873C21.9604 28.4217 22.131 28.3884 22.3031 28.3891C22.368 28.3891 22.419 28.3381 22.419 28.2727C22.419 28.2078 22.368 28.1563 22.3031 28.1563C22.131 28.1569 21.9605 28.1235 21.8014 28.0579C21.6423 27.9923 21.4978 27.8959 21.3761 27.7742C21.2545 27.6525 21.1581 27.5079 21.0926 27.3488C21.027 27.1897 20.9936 27.0192 20.9943 26.8471V26.8471ZM26.342 22.1278C26.342 22.0355 26.2701 21.9636 26.1779 21.9636C26.0856 21.9636 26.0137 22.0355 26.0137 22.1278C26.0146 22.3703 25.9675 22.6106 25.8751 22.8349C25.7827 23.0591 25.6469 23.2629 25.4754 23.4344C25.3039 23.6058 25.1001 23.7417 24.8759 23.8341C24.6517 23.9265 24.4113 23.9736 24.1688 23.9727C24.1472 23.9724 24.1257 23.9765 24.1057 23.9846C24.0857 23.9928 24.0675 24.0049 24.0522 24.0202C24.0369 24.0355 24.0248 24.0537 24.0166 24.0737C24.0085 24.0937 24.0044 24.1152 24.0046 24.1368C24.0044 24.1585 24.0085 24.1799 24.0166 24.1999C24.0248 24.22 24.0369 24.2382 24.0522 24.2535C24.0675 24.2688 24.0857 24.2808 24.1057 24.289C24.1257 24.2972 24.1472 24.3012 24.1688 24.301C24.6581 24.3015 25.1272 24.4961 25.4731 24.8422C25.819 25.1883 26.0134 25.6575 26.0137 26.1468C26.0137 26.2382 26.086 26.3105 26.1779 26.3105C26.2697 26.3105 26.342 26.2382 26.342 26.1463C26.3411 25.9037 26.3882 25.6633 26.4807 25.439C26.5731 25.2146 26.709 25.0108 26.8806 24.8393C27.0522 24.6677 27.2561 24.5318 27.4804 24.4395C27.7048 24.3471 27.9452 24.3 28.1878 24.301C28.2094 24.3012 28.2308 24.2971 28.2508 24.2889C28.2708 24.2807 28.2889 24.2686 28.3042 24.2533C28.3194 24.238 28.3315 24.2198 28.3396 24.1998C28.3477 24.1798 28.3518 24.1584 28.3515 24.1368C28.3518 24.1152 28.3477 24.0937 28.3395 24.0737C28.3314 24.0537 28.3193 24.0355 28.304 24.0202C28.2887 24.0049 28.2705 23.9928 28.2505 23.9846C28.2305 23.9765 28.209 23.9724 28.1874 23.9727C27.9448 23.9736 27.7045 23.9265 27.4802 23.8341C27.2559 23.7417 27.0522 23.6059 26.8806 23.4344C26.7091 23.2629 26.5732 23.0591 26.4808 22.8349C26.3883 22.6107 26.3412 22.3703 26.342 22.1278V22.1278Z" fill="black"/>
<path d="M1.67652 9.25265C1.56058 9.32685 1.48174 9.44279 1.46319 9.57728C1.44 9.73497 -0.721158 25.0996 9.31942 30.2242C9.86954 30.5019 10.4771 30.6465 11.0933 30.6465C11.7095 30.6465 12.3171 30.5019 12.8672 30.2242C16.0348 28.6057 17.9872 25.9715 19.1745 23.1147C20.0447 23.3535 20.9708 23.283 21.7948 22.9153C32.0812 18.3054 30.6945 2.84337 30.6759 2.69033C30.6709 2.62355 30.6507 2.55879 30.617 2.50095C30.5833 2.4431 30.5368 2.39368 30.4812 2.35641C30.4265 2.31812 30.3643 2.29208 30.2986 2.28007C30.233 2.26806 30.1655 2.27038 30.1009 2.28685C24.0209 3.85902 17.9501 3.55294 12.0557 1.3825C11.9304 1.33612 11.7867 1.3454 11.6707 1.41033C11.5501 1.47989 11.4667 1.5912 11.4435 1.72569C11.1123 3.05021 10.7817 7.1323 11.2255 10.6068C8.16 10.6208 5.09913 10.1524 2.06145 9.20163C1.9316 9.16453 1.78783 9.18308 1.67652 9.25265V9.25265ZM22.2029 7.7825C23.6499 6.97554 25.2452 7.04047 26.9472 7.96801C27.0615 8.02973 27.1625 8.11338 27.2444 8.21418C27.3264 8.31498 27.3876 8.43094 27.4246 8.55544C27.4617 8.67993 27.4738 8.8105 27.4603 8.93969C27.4469 9.06888 27.408 9.19413 27.3461 9.3083C27.0859 9.78459 26.4965 9.96407 26.0012 9.70714C24.5588 8.91873 23.6916 9.21555 23.1675 9.51236C22.6899 9.7767 22.087 9.60511 21.8226 9.12743C21.5536 8.64975 21.7252 8.04685 22.2029 7.7825V7.7825ZM20.8672 15.3558C21.9293 15.3234 23.0052 14.9663 24.109 14.2984C24.5728 14.0155 25.1849 14.1593 25.4678 14.6277C25.7507 15.0961 25.6023 15.7037 25.1386 15.9866C23.6313 16.9048 22.1426 17.364 20.6678 17.364C20.7606 16.6729 20.8255 15.9958 20.8672 15.3558ZM14.5275 7.39757C15.9699 6.59062 17.5652 6.65554 19.2719 7.58308C19.7496 7.84279 19.9304 8.44569 19.6661 8.92337C19.4194 9.38528 18.8341 9.58517 18.3258 9.32221C16.8788 8.53381 16.0162 8.83062 15.4922 9.12743C15.0145 9.39178 14.4116 9.22018 14.1426 8.7425C13.8783 8.26482 14.0499 7.66192 14.5275 7.39757V7.39757ZM2.31652 10.2497C8.1229 11.9634 14.0281 11.9652 19.8655 10.2497C20.5871 17.4688 18.969 26.0758 12.4452 29.3941C12.0274 29.6104 11.5638 29.7233 11.0933 29.7233C10.6229 29.7233 10.1592 29.6104 9.74145 29.3941C1.32406 25.1042 2.0429 12.9535 2.31652 10.2497V10.2497Z" fill="black"/>
<path d="M13.5629 16.7657C14.073 16.4457 14.9217 16.1071 16.4058 16.8213C16.9025 17.0616 17.5035 16.8362 17.7229 16.3576C17.9641 15.8613 17.7554 15.2723 17.2638 15.0358C15.6577 14.2655 14.0294 14.1347 12.5148 15.0868C12.071 15.3674 11.9049 15.9731 12.1994 16.4503C12.268 16.5608 12.3577 16.6567 12.4635 16.7324C12.5692 16.8081 12.6889 16.8622 12.8156 16.8915C12.9423 16.9208 13.0736 16.9247 13.2018 16.9032C13.33 16.8816 13.4528 16.8348 13.5629 16.7657V16.7657ZM8.71652 16.8213C8.95338 16.9346 9.22545 16.9493 9.47317 16.8624C9.72089 16.7755 9.92408 16.594 10.0383 16.3576C10.2748 15.8613 10.0661 15.2723 9.57449 15.0358C7.82609 14.1918 6.22609 14.2103 4.82551 15.0868C4.36174 15.379 4.22261 15.9865 4.51014 16.4503C4.80232 16.9141 5.41449 17.0579 5.87826 16.7657C6.38377 16.4457 7.23246 16.1071 8.71652 16.8213V16.8213ZM15.8539 23.1378C16.3084 22.8318 16.4243 22.215 16.1183 21.7605C15.9693 21.5444 15.741 21.3958 15.483 21.3472C15.2251 21.2986 14.9583 21.3537 14.7409 21.5007C12.2968 23.161 9.90841 23.161 7.44116 21.4961C7.22246 21.3504 6.95506 21.2969 6.69713 21.3472C6.43919 21.3976 6.21157 21.5478 6.06377 21.7651C5.75768 22.2196 5.87826 22.8364 6.33275 23.1378C9.45252 25.2452 12.6678 25.3097 15.8539 23.1378Z" fill="black"/>
</svg>
