<svg width="23" height="23" viewBox="0 0 23 23" fill="none" xmlns="http://www.w3.org/2000/svg">
<path d="M20.019 6.1693H22H22.15V6.3193V11.7457V11.9392L21.9626 11.891C21.574 11.7909 21.1663 11.7909 20.7777 11.8909C20.4798 11.9687 20.2002 12.1043 19.9547 12.2901C19.7092 12.476 19.5027 12.7084 19.347 12.9741C19.1913 13.2397 19.0895 13.5334 19.0473 13.8385C19.0051 14.1435 19.0234 14.4538 19.1012 14.7518C19.1789 15.0497 19.3146 15.3294 19.5005 15.5749C19.6863 15.8204 19.9187 16.0269 20.1844 16.1826C20.4501 16.3383 20.7438 16.4402 21.0488 16.4824C21.3538 16.5245 21.6642 16.5062 21.9621 16.4285L22.15 16.3794V16.5736V22V22.15H22H1H0.85V22V16.5736V16.3793L1.03797 16.4285C1.18208 16.4662 1.32948 16.4899 1.47813 16.4994C1.53039 16.5015 1.57943 16.5034 1.63 16.5034H1.63028C1.83002 16.5038 2.02899 16.4786 2.22233 16.4284L2.22322 16.4282C2.37519 16.3897 2.52223 16.3339 2.66145 16.2619L2.66431 16.2604L2.66432 16.2604C3.09359 16.0498 3.44811 15.7128 3.68024 15.2948C3.91237 14.8767 4.01099 14.3976 3.96286 13.9219C3.91473 13.4462 3.72214 12.9966 3.41098 12.6335C3.09985 12.2704 2.68505 12.0113 2.22233 11.8909L20.019 6.1693ZM20.019 6.1693L17.844 0.942373L17.7864 0.803882L17.6479 0.861512L4.89282 6.1693H1H0.85V6.3193V11.7457V11.9396L1.03767 11.8909C1.23101 11.8407 1.42998 11.8155 1.62972 11.8159L1.63028 11.8159C1.82999 11.8155 2.02892 11.8407 2.22223 11.8909L20.019 6.1693ZM3.28125 17.6985L3.28049 17.6989C3.00225 17.8274 2.7101 17.9228 2.41 17.9835V20.59H20.59V17.9833C19.7309 17.808 18.9543 17.3482 18.387 16.6764C17.7924 15.9723 17.4659 15.0807 17.4652 14.1591L3.28125 17.6985ZM3.28125 17.6985C3.95415 17.3833 4.52342 16.883 4.92248 16.2562C5.32155 15.6293 5.53392 14.9019 5.53477 14.1588V14.1584M3.28125 17.6985L5.53477 14.1584M5.53477 14.1584C5.5338 13.2371 5.20711 12.3457 4.61245 11.642C4.04515 10.9706 3.26883 10.5112 2.41 10.336V7.7293H20.59V10.336C20.4839 10.3575 20.3787 10.3831 20.2746 10.4129L20.2735 10.4132M5.53477 14.1584L20.2735 10.4132M20.2735 10.4132C19.3858 10.6744 18.6193 11.2413 18.1097 12.0136L20.2735 10.4132ZM16.9443 2.84254L18.329 6.1693H8.95357L16.9443 2.84254ZM17.6425 13.7071L17.4937 13.6885C17.4742 13.8445 17.4647 14.0015 17.4652 14.1587L17.6425 13.7071Z" fill="black" stroke="black" stroke-width="0.3"/>
<path d="M14.3136 9.08008V8.93008H14.1636H12.9036H12.7536V9.08008V10.3401V10.4901H12.9036H14.1636H14.3136V10.3401V9.08008Z" fill="black" stroke="black" stroke-width="0.3"/>
<path d="M14.3136 12.0464V11.8964H14.1636H12.9036H12.7536V12.0464V13.3064V13.4564H12.9036H14.1636H14.3136V13.3064V12.0464Z" fill="black" stroke="black" stroke-width="0.3"/>
<path d="M14.3136 15.0127V14.8627H14.1636H12.9036H12.7536V15.0127V16.2727V16.4227H12.9036H14.1636H14.3136V16.2727V15.0127Z" fill="black" stroke="black" stroke-width="0.3"/>
<path d="M14.3243 17.979V17.829H14.1743H12.9143H12.7643V17.979V19.239V19.389H12.9143H14.1743H14.3243V19.239V17.979Z" fill="black" stroke="black" stroke-width="0.3"/>
</svg>
