<svg width="20" height="19" viewBox="0 0 20 19" fill="none" xmlns="http://www.w3.org/2000/svg">
<path d="M9.84572 19C15.015 19 19.2055 14.7467 19.2055 9.5C19.2055 4.25329 15.015 0 9.84572 0C4.67644 0 0.485916 4.25329 0.485916 9.5C0.485916 14.7467 4.67644 19 9.84572 19Z" fill="black"/>
<path d="M13.8722 8.50946L14.6907 7.60562H12.8756C11.9669 6.97562 10.8695 6.6087 9.68268 6.6087C8.49736 6.6087 7.40301 6.97641 6.49584 7.60562H4.67619L5.49469 8.50946C4.99299 8.97406 4.67847 9.6433 4.67847 10.3864C4.67847 11.7887 5.79862 12.9256 7.18022 12.9256C7.83653 12.9256 8.43448 12.6686 8.88087 12.2486L9.6827 13.1348L10.4845 12.2494C10.9309 12.6694 11.5281 12.9256 12.1844 12.9256C13.566 12.9256 14.6877 11.7887 14.6877 10.3864C14.6884 9.64253 14.3739 8.97331 13.8722 8.50946ZM7.18096 12.1048C6.24574 12.1048 5.48789 11.3356 5.48789 10.3864C5.48789 9.43714 6.24575 8.66792 7.18096 8.66792C8.11616 8.66792 8.87403 9.43714 8.87403 10.3864C8.87403 11.3356 8.11616 12.1048 7.18096 12.1048ZM9.68344 10.3364C9.68344 9.2056 8.87329 8.23485 7.80393 7.82023C8.38218 7.57484 9.01651 7.43869 9.68268 7.43869C10.3488 7.43869 10.9839 7.57484 11.5622 7.82023C10.4936 8.23562 9.68344 9.20562 9.68344 10.3364ZM12.1852 12.1048C11.25 12.1048 10.4921 11.3356 10.4921 10.3864C10.4921 9.43714 11.25 8.66792 12.1852 8.66792C13.1204 8.66792 13.8783 9.43714 13.8783 10.3864C13.8783 11.3356 13.1204 12.1048 12.1852 12.1048ZM12.1852 9.48482C11.6948 9.48482 11.2977 9.8879 11.2977 10.3856C11.2977 10.8833 11.6948 11.2863 12.1852 11.2863C12.6755 11.2863 13.0726 10.8833 13.0726 10.3856C13.0726 9.88867 12.6755 9.48482 12.1852 9.48482ZM8.06842 10.3864C8.06842 10.884 7.67129 11.2871 7.18096 11.2871C6.69063 11.2871 6.2935 10.884 6.2935 10.3864C6.2935 9.88867 6.69063 9.48559 7.18096 9.48559C7.67129 9.48482 8.06842 9.88867 8.06842 10.3864Z" fill="white"/>
</svg>
